# Clean 3D Tile Model: 48_cersanit_tile_48 (398.0x1198.0x8.0 mm)
mtllib 48_cersanit_tile_48.mtl
o 48_cersanit_tile_48
v -199.0000 -599.0000 0.0000
v 199.0000 -599.0000 0.0000
v 199.0000 599.0000 0.0000
v -199.0000 599.0000 0.0000
v -199.0000 -599.0000 8.0000
v 199.0000 -599.0000 8.0000
v 199.0000 599.0000 8.0000
v -199.0000 599.0000 8.0000
vt 0.0000 0.0000
vt 1.0000 0.0000
vt 1.0000 1.0000
vt 0.0000 1.0000
vn 0.0000 0.0000 1.0000
vn 0.0000 0.0000 -1.0000
vn 0.0000 -1.0000 0.0000
vn 1.0000 0.0000 0.0000
vn 0.0000 1.0000 0.0000
vn -1.0000 0.0000 0.0000
usemtl TileMaterial
s 1
f 5/1/1 6/2/1 7/3/1 8/4/1
f 4/4/2 3/3/2 2/2/2 1/1/2
f 1/1/3 2/2/3 6/2/3 5/1/3
f 2/2/4 3/3/4 7/3/4 6/2/4
f 3/3/5 4/4/5 8/4/5 7/3/5
f 4/4/6 1/1/6 5/1/6 8/4/6
