# Tile 3D Model: 65_opoczno_perfect_match
mtllib 65_opoczno_perfect_match.mtl
o 65_opoczno_perfect_match
v -300.0000 -600.0000 0.0000
v 300.0000 -600.0000 0.0000
v 300.0000 600.0000 0.0000
v -300.0000 600.0000 0.0000
v -300.0000 -600.0000 8.0000
v 300.0000 -600.0000 8.0000
v 300.0000 600.0000 8.0000
v -300.0000 600.0000 8.0000
vt 0.0000 0.0000
vt 1.0000 0.0000
vt 1.0000 1.0000
vt 0.0000 1.0000
vn 0.0000 0.0000 1.0000
vn 0.0000 0.0000 -1.0000
vn 0.0000 -1.0000 0.0000
vn 1.0000 0.0000 0.0000
vn 0.0000 1.0000 0.0000
vn -1.0000 0.0000 0.0000
usemtl TileMaterial
s 1
f 5/1/1 6/2/1 7/3/1 8/4/1
f 4/4/2 3/3/2 2/2/2 1/1/2
f 1/1/3 2/2/3 6/2/3 5/1/3
f 2/2/4 3/3/4 7/3/4 6/2/4
f 3/3/5 4/4/5 8/4/5 7/3/5
f 4/4/6 1/1/6 5/1/6 8/4/6
